<svg xmlns="http://www.w3.org/2000/svg" xmlns:xlink="http://www.w3.org/1999/xlink" width="37.564" height="37.562" viewBox="0 0 37.564 37.562">
  <defs>
    <linearGradient id="linear-gradient" x1="0.81" x2="0.159" y2="0.824" gradientUnits="objectBoundingBox">
      <stop offset="0" stop-color="#f53bb6"/>
      <stop offset="1" stop-color="#f4af6e"/>
    </linearGradient>
  </defs>
  <g id="app-store" transform="translate(0)">
    <path id="Tracé_38" data-name="Tracé 38" d="M6.433-511.883a7.746,7.746,0,0,0-6.375,6.544c-.11.734-.11,23.519,0,24.253a7.766,7.766,0,0,0,6.573,6.573c.734.11,23.519.11,24.253,0a7.766,7.766,0,0,0,6.573-6.573c.11-.734.11-23.519,0-24.253a7.766,7.766,0,0,0-6.573-6.573C30.047-512.037,7.152-512.008,6.433-511.883Zm11.276,7.8a2.313,2.313,0,0,1,.866.9c.066.125.147.22.183.22s.117-.1.183-.22a2.4,2.4,0,0,1,.873-.9,2.091,2.091,0,0,1,1.629,0,2.278,2.278,0,0,1,.917,1.027,2.71,2.71,0,0,1,.051.741l-.022.492-3.213,5.553c-1.761,3.059-3.206,5.575-3.206,5.6s.88.037,1.966.037h1.959l1.027,1.775c.565.976,1.042,1.8,1.049,1.834s-3.221.051-7.189.044l-7.211-.022-.3-.161a2.184,2.184,0,0,1-.88-.946,2.45,2.45,0,0,1,0-1.379,2.184,2.184,0,0,1,.88-.946c.286-.154.4-.161,2.362-.183l2.069-.022,2.472-4.284,2.465-4.284-.682-1.2c-.381-.66-.726-1.291-.778-1.4a2.475,2.475,0,0,1,.015-1.328,2.027,2.027,0,0,1,1.218-1.078A2.3,2.3,0,0,1,17.708-504.085Zm6.1,9.955,1.988,3.448,2.076.037c1.951.037,2.083.044,2.37.2a2.184,2.184,0,0,1,.88.946,2.45,2.45,0,0,1,0,1.379,2.145,2.145,0,0,1-.88.946,2.709,2.709,0,0,1-1.3.183l-1,.029.646,1.115c.748,1.291.873,1.665.734,2.282a1.834,1.834,0,0,1-2.964.976c-.2-.176-1.174-1.8-3.5-5.84-1.775-3.074-3.228-5.619-3.228-5.656s1.636-2.92,1.959-3.448c.059-.1.139-.139.169-.11S22.719-496.03,23.812-494.13Zm-10.938,8.781c-.059.1-.4.682-.756,1.306-.756,1.306-1.056,1.636-1.636,1.8a1.8,1.8,0,0,1-2.3-1.328,2.045,2.045,0,0,1,.308-1.541l.227-.4h4.255Z" transform="translate(0.025 511.993)" fill="url(#linear-gradient)"/>
  </g>
</svg>
